<?xml version="1.0" encoding="UTF-8"?>
<svg id="Layer_2" data-name="Layer 2" xmlns="http://www.w3.org/2000/svg" xmlns:xlink="http://www.w3.org/1999/xlink" viewBox="0 0 191.44 167.37">
  <defs>
    <style>
      .cls-1 {
        fill: url(#linear-gradient-2);
      }

      .cls-2 {
        fill: url(#linear-gradient-6);
      }

      .cls-3 {
        fill: url(#linear-gradient-5);
      }

      .cls-4 {
        fill: url(#linear-gradient-7);
      }

      .cls-5 {
        fill: url(#linear-gradient-3);
      }

      .cls-6 {
        fill: url(#linear-gradient);
      }

      .cls-7 {
        fill: url(#linear-gradient-4);
      }

      .cls-8 {
        fill: url(#linear-gradient-8);
      }
    </style>
    <linearGradient id="linear-gradient" x1="53.28" y1="72.38" x2="131.49" y2="27.23" gradientUnits="userSpaceOnUse">
      <stop offset="0" stop-color="#ff1be9"/>
      <stop offset="1" stop-color="#7000c4"/>
    </linearGradient>
    <linearGradient id="linear-gradient-2" x1="87.96" y1="40.88" x2="82.14" y2="50.96" gradientUnits="userSpaceOnUse">
      <stop offset="0" stop-color="#0fffff"/>
      <stop offset=".05" stop-color="#11e3eb"/>
      <stop offset=".15" stop-color="#14afc6"/>
      <stop offset=".26" stop-color="#1880a6"/>
      <stop offset=".37" stop-color="#1b588a"/>
      <stop offset=".48" stop-color="#1d3873"/>
      <stop offset=".6" stop-color="#1f1f62"/>
      <stop offset=".72" stop-color="#200d55"/>
      <stop offset=".85" stop-color="#21034e"/>
      <stop offset="1" stop-color="#22004c"/>
    </linearGradient>
    <linearGradient id="linear-gradient-3" x1="114.2" y1="40.88" x2="108.38" y2="50.96" xlink:href="#linear-gradient-2"/>
    <linearGradient id="linear-gradient-4" x1="39.64" y1="96.45" x2="86.46" y2="49.64" gradientUnits="userSpaceOnUse">
      <stop offset="0" stop-color="#74f27e"/>
      <stop offset="1" stop-color="#a41147"/>
    </linearGradient>
    <linearGradient id="linear-gradient-5" x1="100.19" y1="78.99" x2="160.94" y2="78.99" gradientUnits="userSpaceOnUse">
      <stop offset="0" stop-color="#ffcb21"/>
      <stop offset=".08" stop-color="#d9ab3b"/>
      <stop offset=".2" stop-color="#aa845c"/>
      <stop offset=".32" stop-color="#826279"/>
      <stop offset=".45" stop-color="#614690"/>
      <stop offset=".57" stop-color="#4831a2"/>
      <stop offset=".7" stop-color="#3622af"/>
      <stop offset=".84" stop-color="#2b18b7"/>
      <stop offset="1" stop-color="#2816ba"/>
    </linearGradient>
    <linearGradient id="linear-gradient-6" x1="66.46" y1="91" x2="96.19" y2="91" gradientUnits="userSpaceOnUse">
      <stop offset="0" stop-color="#ff5d15"/>
      <stop offset=".11" stop-color="#f86215"/>
      <stop offset=".27" stop-color="#e67216"/>
      <stop offset=".45" stop-color="#c98c18"/>
      <stop offset=".65" stop-color="#a1b11a"/>
      <stop offset=".87" stop-color="#6ddf1d"/>
      <stop offset="1" stop-color="#4aff20"/>
    </linearGradient>
    <linearGradient id="linear-gradient-7" x1="100.48" y1="91.19" x2="130.2" y2="91.19" gradientUnits="userSpaceOnUse">
      <stop offset="0" stop-color="#18007e"/>
      <stop offset="1" stop-color="#f60057"/>
    </linearGradient>
    <linearGradient id="linear-gradient-8" x1="95.72" y1="125.95" x2="95.72" y2="167.37" gradientUnits="userSpaceOnUse">
      <stop offset="0" stop-color="#fff"/>
      <stop offset=".17" stop-color="#f9ffff"/>
      <stop offset=".37" stop-color="#eaffff"/>
      <stop offset=".61" stop-color="#d0ffff"/>
      <stop offset=".85" stop-color="#adffff"/>
      <stop offset="1" stop-color="#94ffff"/>
    </linearGradient>
  </defs>
  <g id="head">
    <path class="cls-6" d="m62.92,74.61c-.42,0-.86-.02-1.33-.06-1.43-.13-2.83-.46-4.14-.99-1.83-.74-3.16-1.7-3.95-2.37-1.7-1.46-2.65-2.99-2.98-3.58-1.19-2.15-1.4-4.04-1.59-5.71-.18-1.6-.38-3.42.21-5.7.74-2.9,2.31-4.85,3.18-5.76.85-.88,2.29-2.12,4.37-2.98,2.3-.95,4.24-.98,5.52-.99,1.21-.01,2.72-.03,4.56.6,1.78.62,2.99,1.54,3.58,1.98.56.43.87.73,1.34,1.18.25.24.55.53.96.92.9.83,1.83,1.64,2.76,2.4l.42.33-.17.5c-.24.69-.62,1.29-1.12,1.79-.94.93-2.27,1.4-3.74,1.34-1.05-.04-2.07-.41-3.02-1.07-.71-.5-1.01-.94-1.26-1.3-.21-.31-.34-.5-.73-.71-.34-.19-1.17-.3-2.53-.47-1.12-.14-1.74-.22-2.07-.19-.96.11-1.89.55-2.76,1.31-1.03.91-1.44,1.95-1.67,2.51-.2.5-.53,1.54-.51,2.89.01.85.03,1.9.65,3,.6,1.06,1.46,1.6,2.36,2.16.85.53,1.73,1.09,3.03,1.2,1.37.12,2.42-.33,2.82-.5.7-.3,1.17-.64,2.41-1.74,1.82-1.61,3.22-3.01,3.89-3.7.96-.98,1.58-1.65,2.44-2.56l.92-.98c1.14-1.21,2.12-2.25,2.88-3.03-.52-.33-.98-.73-1.39-1.18-1.42-1.57-1.71-3.36-2.06-5.44-.21-1.24-.38-2.31-.19-3.78.16-1.23.54-2.42,1.13-3.53-.44-.49-.84-1.02-1.2-1.57-1.65-2.55-1.96-4.97-2.18-7.65-.39-4.82-.26-8.39.4-10.91.89-3.44,1.91-5.9,5-9.82,1.41-1.79,2.87-3.63,5.37-5.56,1.16-.89,3.57-2.75,7.16-3.86,2.49-.78,4.37-.85,7.49-.97,3.02-.12,5.02-.19,7.68.39,3.79.83,6.45,2.48,7.72,3.28,2.05,1.28,4.05,2.94,5.77,4.81,1.67,1.81,3.17,3.93,4.23,5.96.68,1.3,1.94,3.72,2.51,7.15.04.23.07,1.27.2,6.46.06,2.43.1,3.89-.41,5.49-.12.37-.28.79-1.35,3.08-.63,1.35-1.16,2.47-1.56,3.29.18.6.35,1.21.49,1.83.25,1.11.57,2.49.58,4.28.01,1.57.02,2.8-.63,4.25-.4.89-.89,1.49-1.78,2.59-.46.57-.94,1.11-1.44,1.63l.49.59,7.5,7.51c.74.97,1.62,1.79,2.62,2.44,1.03.67,2.42,1.6,4.44,1.56,1.94-.03,3.34-.95,3.85-1.34,1.45-1.11,1.98-2.51,2.19-3.04.28-.72,1.01-2.64.19-4.68-.67-1.66-2-2.51-2.51-2.82-.41-.26-1.48-.93-3-1.01-.53-.03-2.36-.02-3.79,1.14-.28.22-.45.42-.63.63-.29.33-.63.71-1.33,1.12-.38.23-1.28.75-2.57.85-.88.07-1.77-.08-2.6-.43l-.15-.08-3.25-2.32.47-.62c1.2-1.59,2.56-3.01,4.05-4.24.97-.8,1.96-1.62,3.53-2.35,1.28-.59,2.71-1,4.15-1.19,1.02-.13,2.72-.35,4.78.21,1.61.43,2.7,1.14,3.95,1.96.82.54,2.06,1.35,3.33,2.75.63.69,1.8,1.98,2.58,3.97.98,2.5.77,4.62.61,6.33-.14,1.49-.35,3.73-1.79,6.12-1.06,1.76-2.3,2.81-2.97,3.37-1.29,1.09-2.75,1.95-4.33,2.56-.89.34-2.56.98-4.76.99h-.01c-1.58,0-2.78-.33-3.74-.59-.82-.22-2.35-.64-3.93-1.58-1.02-.61-1.45-1.07-2.31-2-.51-.55-1.21-1.31-2.33-2.41-.74-.73-1.61-1.54-3.33-3.14l-.98-.91c-1.53-1.42-2-1.85-2.69-2.76-.16-.2-.3-.4-.45-.62-.3-.42-.64-.89-1.22-1.61-1.31-1.63-1.61-1.77-1.77-1.84-.41-.18-.65-.14-1.12-.04-.42.08-.94.19-1.66.1-2.17-.25-3.6-1.87-4.97-3.43-.52-.6-1.61-1.83-2.38-3.78-.32-.8-1.03-2.96-.8-5.77.12-1.47.28-3.49,1.63-5.42,1.99-2.85,5.39-3.97,7.7-4.06.65-.03,1.08.03,1.43.07.43.05.69.09,1.22-.05,1.89-.49,3.01-2.1,3.68-3.07.59-.85,1.37-2.26,1.75-4.2.77-3.97-.78-7.29-1.44-8.7-1.38-2.95-3.24-4.72-4.14-5.57-2.15-2.05-4.24-3.11-5.25-3.62-1.61-.81-3.26-1.65-5.56-1.98-2.76-.39-4.91.15-7.19.73-1.74.44-3.91.99-6.33,2.52-2.94,1.86-4.61,4.14-5.41,5.23-.89,1.22-2,2.74-2.69,5.01-.4,1.32-.51,2.45-.72,4.71-.19,2.03-.26,2.97-.02,3.84.5,1.81,1.81,2.9,2.37,3.36.65.53,1.62,1.34,2.98,1.52.44.06.78.09,1.11.13.54.06,1.05.11,1.91.25l.39.06c1.01.16,1.68.26,2.28.58,1.61.86,2.59,1.94,3.01,2.4.43.48,1.27,1.5,1.99,2.98.37.75.98,2.01,1.19,3.8.11.94.18,2.85-.6,5.02-.58,1.59-1.38,2.7-1.81,3.22-1.36,1.64-2.87,2.43-3.6,2.81-.1.05-.67.33-3.25,1.34l-.15.06h-.16c-.56-.03-1.07.08-1.51.29-.6.29-.92.73-1.32,1.28-.09.12-.18.25-.28.38-.64.83-1.06,1.14-1.6,1.53-.43.31-.96.7-1.84,1.55-.66.63-.89.92-1.24,1.36-.34.43-.77.96-1.72,1.98-.72.77-1.07,1.11-1.52,1.54-.41.39-.91.86-1.86,1.84-.83.86-1.36,1.42-1.74,1.83-.64.69-.91.98-1.54,1.44-1.23.89-2.67,1.57-4.17,1.99-.56.15-1.88.46-3.62.46Zm-.12-26.62c-.19,0-.38,0-.57,0-1.17.01-2.93.04-4.96.88-1.84.76-3.11,1.85-3.86,2.63-.77.8-2.15,2.52-2.81,5.09-.51,2.01-.34,3.61-.17,5.15.18,1.6.36,3.26,1.41,5.14.29.52,1.12,1.86,2.64,3.16.7.6,1.89,1.46,3.53,2.12,1.18.47,2.43.77,3.71.88,2.14.19,3.8-.18,4.41-.35,1.68-.46,2.93-1.21,3.69-1.75.51-.37.7-.57,1.32-1.24.38-.41.91-.99,1.76-1.86.97-1,1.48-1.48,1.9-1.88.43-.41.77-.74,1.46-1.47.91-.98,1.32-1.49,1.65-1.89.36-.45.65-.81,1.37-1.5.96-.92,1.53-1.34,2-1.68.49-.35.78-.57,1.29-1.23.09-.12.18-.23.26-.35.46-.63.94-1.28,1.88-1.74.62-.3,1.31-.43,2.07-.45,2.49-.98,2.97-1.22,2.98-1.23.63-.33,1.96-1.02,3.13-2.43.37-.44,1.06-1.39,1.55-2.77.68-1.88.62-3.52.52-4.33-.18-1.53-.71-2.6-1.05-3.31-.64-1.31-1.37-2.21-1.75-2.63-.4-.44-1.22-1.35-2.6-2.08-.38-.2-.91-.28-1.8-.42l-.39-.06c-.82-.13-1.32-.18-1.83-.24-.34-.04-.69-.07-1.14-.13-1.79-.24-3.02-1.25-3.75-1.85-.61-.51-2.24-1.85-2.87-4.12-.32-1.18-.21-2.39-.02-4.39.22-2.36.33-3.55.78-5.01.77-2.52,2.01-4.22,2.92-5.46.85-1.17,2.63-3.6,5.82-5.62,2.62-1.66,4.92-2.24,6.76-2.71,2.33-.59,4.73-1.2,7.78-.76,2.55.37,4.32,1.26,6.03,2.13,1.07.54,3.29,1.67,5.61,3.87.96.91,2.97,2.82,4.47,6.03.72,1.55,2.42,5.18,1.55,9.63-.43,2.2-1.32,3.81-1.99,4.78-.74,1.06-2.12,3.04-4.55,3.67-.8.21-1.28.15-1.78.09-.33-.04-.66-.08-1.18-.06-1.96.08-4.84,1.02-6.52,3.42-1.11,1.6-1.25,3.23-1.36,4.68-.2,2.49.42,4.39.7,5.09.68,1.7,1.61,2.76,2.11,3.33,1.24,1.41,2.41,2.75,4.01,2.93.48.06.83-.01,1.19-.08.55-.11,1.17-.23,2.02.14.53.24,1.04.65,2.34,2.28.6.75.95,1.24,1.26,1.67.15.21.28.39.43.59.61.81,1.01,1.18,2.51,2.57l.96.89c1.76,1.64,2.63,2.45,3.38,3.2,1.14,1.13,1.85,1.9,2.38,2.46.83.9,1.13,1.23,1.97,1.73,1.4.83,2.75,1.2,3.55,1.42.92.25,1.97.53,3.35.53h0c1.92,0,3.36-.55,4.22-.88,1.42-.55,2.73-1.32,3.9-2.3.6-.51,1.72-1.45,2.65-2.99,1.26-2.09,1.44-4.05,1.58-5.48.16-1.63.33-3.48-.51-5.64-.68-1.74-1.73-2.89-2.29-3.51-1.14-1.25-2.23-1.97-3.03-2.49-1.25-.82-2.15-1.4-3.52-1.77-1.77-.48-3.23-.29-4.2-.17-1.29.16-2.57.53-3.71,1.06-1.39.65-2.27,1.37-3.2,2.14-1.21.99-2.32,2.13-3.33,3.37l1.91,1.36c.58.23,1.21.33,1.82.29.94-.07,1.6-.46,1.92-.65.5-.29.7-.53.96-.82.21-.23.44-.5.82-.8,1.85-1.49,4.16-1.51,4.81-1.48,1.91.09,3.24.92,3.73,1.24.56.35,2.25,1.42,3.11,3.54,1.04,2.6.12,5-.18,5.79-.24.64-.89,2.33-2.68,3.7-.63.48-2.35,1.61-4.75,1.65-2.47.04-4.17-1.07-5.29-1.81-1.13-.74-2.13-1.67-2.96-2.75l-7.45-7.45-1.43-1.71.5-.49c.64-.62,1.25-1.29,1.81-1.99.87-1.07,1.26-1.56,1.58-2.27.51-1.14.51-2.12.49-3.61-.01-1.62-.31-2.91-.54-3.95-.15-.68-.34-1.35-.54-2l-.09-.29.13-.27c.4-.83.98-2.05,1.68-3.55,1.03-2.21,1.18-2.61,1.27-2.9.41-1.3.4-2.47.34-4.99-.09-3.62-.15-6.01-.18-6.27-.52-3.17-1.71-5.45-2.35-6.68-1-1.92-2.42-3.92-4-5.64-1.63-1.77-3.52-3.34-5.46-4.55-1.3-.81-3.71-2.31-7.24-3.08-2.47-.54-4.28-.47-7.29-.36-3,.12-4.8.19-7.1.9-3.33,1.04-5.51,2.72-6.69,3.62-2.35,1.81-3.75,3.58-5.11,5.29-2.95,3.73-3.87,5.96-4.72,9.26-.6,2.33-.72,5.83-.35,10.41.2,2.47.48,4.69,1.94,6.94.4.62.88,1.21,1.4,1.75l.41.42-.3.5c-.64,1.08-1.05,2.24-1.21,3.45-.16,1.24,0,2.16.18,3.33.33,1.99.57,3.43,1.68,4.67.49.55,1.1.99,1.81,1.32l.96.45-.74.77c-.79.82-2.03,2.12-3.55,3.74l-.92.98c-.86.92-1.49,1.59-2.46,2.58-.68.71-2.11,2.13-3.97,3.78-1.28,1.13-1.9,1.6-2.82,2-.49.21-1.8.76-3.54.62-1.66-.14-2.8-.85-3.71-1.42-.98-.61-2.09-1.31-2.88-2.7-.82-1.44-.83-2.82-.85-3.73-.02-1.61.38-2.86.61-3.47.25-.63.77-1.95,2.08-3.1,1.11-.97,2.32-1.54,3.6-1.68.51-.06,1.15.03,2.42.19,1.65.21,2.48.32,3.08.65.7.39.99.81,1.25,1.18.21.31.4.58.88.92.26.19,1.07.75,2.22.8,1.06.04,1.98-.28,2.62-.9.22-.21.4-.46.54-.73-.81-.67-1.62-1.38-2.4-2.1-.43-.4-.74-.7-.99-.95-.46-.45-.71-.69-1.2-1.06-.52-.4-1.6-1.22-3.16-1.76-1.33-.46-2.47-.52-3.48-.52Z"/>
  </g>
  <g id="eyes">
    <path class="cls-1" d="m85.05,51.74c-3.21,0-5.82-2.61-5.82-5.82s2.61-5.82,5.82-5.82,5.82,2.61,5.82,5.82-2.61,5.82-5.82,5.82Zm0-8.6c-1.54,0-2.79,1.25-2.79,2.79s1.25,2.79,2.79,2.79,2.79-1.25,2.79-2.79-1.25-2.79-2.79-2.79Z"/>
    <path class="cls-5" d="m111.29,51.74c-3.21,0-5.82-2.61-5.82-5.82s2.61-5.82,5.82-5.82,5.82,2.61,5.82,5.82-2.61,5.82-5.82,5.82Zm0-8.6c-1.54,0-2.79,1.25-2.79,2.79s1.25,2.79,2.79,2.79,2.79-1.25,2.79-2.79-1.25-2.79-2.79-2.79Z"/>
  </g>
  <g id="top_left_arm">
    <path class="cls-7" d="m48.18,100.45c-1.04,0-2.07-.13-3.21-.5-2.36-.76-3.86-2.12-4.58-2.78-.92-.84-2.63-2.67-3.75-5.52-.47-1.21-1.23-3.7-.99-6.88.14-1.88.36-4.72,2.42-7.17.86-1.02,1.81-1.66,3.71-2.94,1.48-1,2.3-1.55,3.56-1.96,1.74-.57,3.14-.49,4.76-.41,1.7.09,3.3.17,5.14,1,1.33.6,2.31,1.48,3.93,2.93,1.32,1.18,2.6,2.46,3.8,3.8l.4.45-.35.49c-.41.58-.91,1.09-1.49,1.49-1.12.78-2.22,1.01-2.78,1.07-.36.04-1.32.15-2.39-.22-.88-.3-1.32-.75-1.78-1.22-.27-.28-.58-.59-1.05-.95-.5-.38-1.42-1.08-2.7-1.36-1.12-.25-2.3-.13-3.49.34-1.42.56-2.28,1.5-2.67,2-.82,1.07-1.05,2.13-1.17,2.7-.14.64-.47,2.14.16,3.88.17.47.53,1.46,1.48,2.31.77.69,1.57.93,2.9,1.34,1.3.39,2.01.61,2.89.53,1.46-.13,2.59-.97,3.28-1.65l33.01-32.62c.46-.33.95-.61,1.46-.83,1.83-.78,3.6-.66,4.76-.42l.17.04,2.76,2.17-.72.91.22.22-35.73,35.54c-.56.64-1.24,1.25-1.97,1.77-2.34,1.65-4.66,1.94-6.7,2.19-1.18.15-2.24.28-3.29.28Zm.3-26.7c-.88,0-1.72.08-2.67.39-1.06.34-1.72.79-3.18,1.78-1.78,1.2-2.68,1.81-3.4,2.67-1.74,2.07-1.94,4.62-2.07,6.3-.22,2.88.46,5.13.89,6.21,1.01,2.57,2.54,4.21,3.36,4.95.69.63,1.98,1.8,4.02,2.46,1.98.64,3.6.44,5.85.16,1.96-.24,3.98-.5,6.02-1.93.63-.45,1.22-.97,1.74-1.56l35.41-35.22-1.49-1.17c-.94-.17-2.3-.23-3.68.36-.39.17-.77.38-1.12.63l-32.88,32.51c-.86.86-2.3,1.91-4.21,2.09-1.17.11-2.09-.17-3.47-.59-1.42-.43-2.44-.74-3.46-1.66-1.23-1.1-1.7-2.38-1.89-2.93-.78-2.16-.37-4.02-.21-4.72.14-.63.43-1.95,1.45-3.29.48-.63,1.55-1.79,3.32-2.49,1.84-.73,3.39-.62,4.37-.41,1.6.35,2.74,1.22,3.29,1.63.55.42.92.79,1.21,1.09.42.43.65.67,1.2.85.75.26,1.43.18,1.73.15.42-.05,1.24-.21,2.08-.8.27-.19.52-.41.75-.66-1.04-1.13-2.13-2.2-3.25-3.21-1.68-1.51-2.47-2.19-3.55-2.68-1.57-.71-2.97-.79-4.59-.87-.55-.03-1.05-.05-1.55-.05Z"/>
  </g>
  <g id="top_right_arm">
    <path class="cls-3" d="m148.37,100.64c-1.05,0-2.11-.13-3.29-.28-2.04-.25-4.36-.54-6.7-2.19-.73-.52-1.41-1.12-2-1.8l-35.69-35.5.22-.22-.72-.91,2.76-2.17.17-.04c1.16-.24,2.93-.36,4.76.42.51.22,1,.5,1.46.83l.09.07,32.92,32.55c.69.68,1.81,1.52,3.28,1.66.88.08,1.6-.14,2.89-.53,1.32-.4,2.12-.65,2.9-1.34.95-.84,1.32-1.87,1.48-2.31.63-1.75.3-3.24.16-3.88-.12-.57-.36-1.62-1.17-2.7-.39-.5-1.25-1.44-2.67-2-1.19-.47-2.37-.59-3.49-.34-1.28.28-2.2.98-2.7,1.36-.47.35-.78.67-1.05.95-.46.47-.9.92-1.78,1.22-1.07.37-2.03.26-2.39.22-.56-.06-1.67-.28-2.78-1.07-.58-.41-1.08-.91-1.49-1.49l-.35-.49.4-.45c1.2-1.34,2.48-2.62,3.8-3.8,1.62-1.45,2.6-2.33,3.93-2.93,1.83-.83,3.44-.91,5.14-1,1.62-.08,3.02-.16,4.76.41,1.26.41,2.07.96,3.55,1.96,1.9,1.29,2.85,1.93,3.71,2.95,2.06,2.44,2.28,5.28,2.42,7.16.24,3.18-.51,5.68-.98,6.89-1.12,2.85-2.83,4.68-3.75,5.52-.72.66-2.22,2.02-4.58,2.78-1.14.37-2.17.5-3.21.5Zm-46.26-40.49l35.37,35.18c.55.63,1.14,1.15,1.77,1.6,2.03,1.43,4.06,1.68,6.02,1.93,2.25.28,3.87.48,5.85-.16,2.05-.66,3.33-1.83,4.03-2.46.82-.75,2.35-2.39,3.36-4.95.42-1.09,1.1-3.34.88-6.21-.13-1.69-.33-4.24-2.07-6.3-.72-.86-1.62-1.46-3.4-2.66-1.46-.99-2.12-1.44-3.18-1.78-1.47-.48-2.68-.42-4.21-.34-1.62.08-3.02.16-4.6.87-1.07.49-1.86,1.17-3.55,2.68-1.12,1-2.21,2.08-3.25,3.21.23.25.48.47.75.66.84.59,1.66.76,2.08.8.29.03.97.11,1.73-.15.54-.19.77-.42,1.2-.85.29-.3.66-.67,1.21-1.09.55-.42,1.68-1.28,3.29-1.63,1.42-.31,2.89-.18,4.37.41,1.76.7,2.84,1.86,3.32,2.49,1.02,1.34,1.31,2.66,1.45,3.29.15.7.56,2.57-.21,4.72-.2.55-.66,1.83-1.89,2.93-1.02.91-2.05,1.23-3.46,1.66-1.38.42-2.29.7-3.47.59-1.91-.17-3.34-1.23-4.21-2.09l-32.88-32.51c-.35-.25-.73-.46-1.12-.63-1.38-.59-2.74-.54-3.68-.36l-1.49,1.17Z"/>
  </g>
  <g id="bottom_left_arm">
    <path class="cls-2" d="m82.28,111.8c-.48,0-.99-.01-1.55-.03-3.13-.08-5.39-.14-7.52-1.63-1.21-.85-1.99-2-3.55-4.3-1-1.47-1.6-2.35-2.14-3.71-.39-.97-1.3-3.23-.99-6.16.25-2.34,1.15-3.98,1.59-4.77.68-1.24,1.55-2.37,2.57-3.36l16.08-15.89c.45-.44.95-.79,1.5-1.07,1.37-.7,2.72-.73,3.6-.64l.16.02,4.16,2.45-20.51,20.71c-.46.57-.86,1.25-1.14,1.99-.74,1.91-.75,3.78-.02,5.4.59,1.3,1.47,2.06,1.82,2.33,1.69,1.28,3.57,1.19,4.19,1.16,2.15-.1,3.64-1.18,4.05-1.51,1.19-.96,1.98-2.27,2.36-3.89.2-.84.56-2.39-.13-3.79-.08-.16-.12-.21-.32-.47-.24-.32-.65-.84-1.49-2.05-.79-1.13-1.1-1.62-1.24-2.34-.19-.94-.04-1.92.43-2.91l1.52-2.54.63.32c.76.39,1.49.86,2.17,1.38.92.71,1.81,1.6,2.57,2.57,1.02,1.3,1.84,2.8,2.36,4.34.24.71.67,2.19.79,4.13.05.84.16,2.6-.4,4.73-.66,2.53-1.9,4.31-2.58,5.15-.66.82-2.22,2.73-5,3.78-1.38.53-2.55.64-3.97.64Zm8.86-40.09c-.63,0-1.41.11-2.19.51-.41.21-.79.48-1.13.81l-16.08,15.89c-.92.89-1.69,1.9-2.3,3.01-.39.7-1.19,2.17-1.41,4.21-.27,2.55.51,4.5.89,5.44.48,1.2,1.02,1.99,1.98,3.41,1.46,2.15,2.19,3.23,3.18,3.92,1.76,1.23,3.72,1.28,6.69,1.36,2.11.05,3.38.09,4.95-.51,2.39-.91,3.77-2.6,4.36-3.32.6-.74,1.7-2.32,2.29-4.58.49-1.9.4-3.43.35-4.25-.11-1.83-.53-3.21-.71-3.73-.47-1.38-1.21-2.72-2.12-3.9-.68-.87-1.47-1.66-2.3-2.3-.42-.32-.86-.62-1.32-.89l-.75,1.24c-.3.63-.4,1.29-.28,1.89.08.4.24.68,1,1.77.82,1.17,1.21,1.68,1.45,1.99.22.28.33.43.48.73.93,1.89.47,3.86.24,4.81-.46,1.95-1.43,3.54-2.88,4.72-.64.52-2.39,1.73-4.93,1.85-.75.04-3.04.14-5.17-1.46-.45-.34-1.56-1.29-2.29-2.91-.89-1.97-.89-4.31-.02-6.57.34-.88.82-1.71,1.43-2.45l19.19-19.38-2.19-1.29c-.13,0-.26-.02-.4-.02Z"/>
  </g>
  <g id="bottom_right_arm">
    <path class="cls-4" d="m114.39,111.99c-1.43,0-2.59-.11-3.98-.64-2.77-1.05-4.33-2.97-5-3.78-.68-.84-1.92-2.62-2.58-5.15-.55-2.13-.45-3.88-.4-4.73.12-1.94.54-3.42.79-4.13.53-1.53,1.34-3.03,2.36-4.34.75-.96,1.64-1.85,2.57-2.56.68-.52,1.41-.99,2.17-1.38l.63-.33,1.49,2.48c.5,1.04.65,2.04.47,2.97-.15.72-.46,1.21-1.24,2.34-.84,1.2-1.25,1.73-1.49,2.05-.2.26-.24.31-.32.47-.69,1.4-.33,2.96-.13,3.79.38,1.62,1.17,2.92,2.36,3.89.41.33,1.9,1.41,4.05,1.51.61.03,2.5.12,4.18-1.16.35-.27,1.24-1.02,1.82-2.33.73-1.62.73-3.49-.02-5.4-.29-.73-.69-1.42-1.19-2.04l-20.47-20.65,4.16-2.45.16-.02c.89-.09,2.23-.06,3.61.64.54.28,1.05.63,1.49,1.06l16.09,15.91c1.02.98,1.88,2.11,2.56,3.35.43.79,1.34,2.44,1.58,4.78.31,2.93-.6,5.19-.99,6.16-.54,1.35-1.14,2.23-2.13,3.69-1.57,2.31-2.35,3.47-3.56,4.32-2.13,1.5-4.39,1.56-7.52,1.63-.56.01-1.07.03-1.55.03Zm-3.98-25.02c-.46.27-.9.57-1.32.89-.83.64-1.62,1.43-2.3,2.3-.92,1.17-1.65,2.52-2.12,3.9-.18.51-.6,1.9-.71,3.73-.05.82-.14,2.35.35,4.25.59,2.26,1.68,3.84,2.29,4.58.59.72,1.96,2.42,4.36,3.32,1.57.6,2.84.56,4.94.51,2.98-.08,4.94-.13,6.7-1.36.98-.69,1.72-1.77,3.18-3.92.97-1.43,1.5-2.21,1.98-3.41.38-.94,1.16-2.89.88-5.44-.22-2.04-1.02-3.5-1.41-4.21-.61-1.11-1.38-2.12-2.29-3l-16.09-15.91c-.33-.32-.71-.59-1.12-.8-.97-.49-1.92-.55-2.6-.5l-2.19,1.29,19.14,19.32c.65.8,1.13,1.62,1.48,2.5.88,2.27.87,4.6-.01,6.57-.73,1.62-1.85,2.58-2.29,2.91-2.13,1.6-4.42,1.5-5.17,1.46-2.54-.12-4.3-1.34-4.93-1.85-1.45-1.18-2.42-2.77-2.88-4.72-.22-.95-.69-2.92.25-4.81.15-.3.26-.44.48-.73.24-.31.63-.82,1.45-1.99.76-1.09.92-1.37,1-1.77.12-.61.02-1.27-.31-1.95l-.71-1.18Z"/>
  </g>
  <g id="text">
    <g>
      <path class="cls-8" d="m35.24,164.62v-16.41c.02-.08.03-.19.03-.32,0-.39-.05-1.06-.15-2.01-.1-.95-.4-2.04-.89-3.28s-1.32-2.26-2.48-3.06c-1.11-.64-2.13-.97-3.05-.97-.64,0-1.45.27-2.4.81-.96.54-1.84,1.51-2.64,2.92.37.7.62,1.56.76,2.58.04.41.08.81.12,1.2.06.59.1,1.02.12,1.29.1,1.86.15,4.23.15,7.12,0,.49,0,1.75-.01,3.79-.01,2.04-.03,4.22-.07,6.55,0,.33.05.63.16.89.11.26.24.49.4.67.16.19.29.33.41.42l.18.15-8.26.09h.03s.15-.11.32-.34.36-.53.56-.91c.19-.38.29-.78.29-1.19v-16.61c0-.37-.05-1.05-.15-2.05-.1-1-.39-2.11-.88-3.35-.49-1.24-1.31-2.26-2.46-3.06-1.11-.64-2.14-.97-3.08-.97-.7,0-1.55.3-2.53.89-.99.6-1.87,1.63-2.65,3.09v22.79c0,.2.06.39.18.59s.25.38.41.56c.16.18.29.31.41.41l.18.15H0l.5-.44c.45-.43.67-.9.67-1.41v-24.67c0-.43-.11-.92-.34-1.46-.22-.55-.5-1.01-.83-1.38l4.22.23c.82.08,1.5.32,2.04.73.54.41.81.91.81,1.49v1.82c.6-1.09,1.49-2.05,2.67-2.86s2.72-1.22,4.66-1.22h.64c.74,0,1.75.09,3.03.28,1.28.19,2.49.74,3.65,1.66,0,.02,0,.04.03.06.19.14.45.38.78.73s.65.8.98,1.35c.6-1.07,1.49-2.02,2.67-2.84s2.72-1.23,4.66-1.23h.64c.74,0,1.76.09,3.05.28s2.5.74,3.63,1.66l.06.06c.35.25.83.79,1.45,1.61s1.02,1.94,1.22,3.37l.12,1.17c.08.61.13,1.04.15,1.32.08,1.8.12,4.09.12,6.88,0,.55,0,1.87-.01,3.96-.01,2.09-.03,4.3-.07,6.62,0,.33.06.63.18.89s.25.49.4.67.28.33.4.42l.18.15-8.26.09h.03s.15-.11.34-.34c.19-.22.37-.53.56-.91.19-.38.28-.78.28-1.19Z"/>
      <path class="cls-8" d="m61.97,137.63c4.16.53,7.48,2.31,9.96,5.36,2.23,2.71,3.34,5.88,3.34,9.49,0,.45-.02.91-.06,1.38-.55,4.16-2.34,7.48-5.39,9.96-2.7,2.21-5.83,3.31-9.4,3.31-.47,0-.95-.02-1.44-.06-4.18-.53-7.51-2.31-9.99-5.36-2.21-2.71-3.31-5.88-3.31-9.49,0-.45.02-.91.06-1.38.53-4.16,2.31-7.48,5.36-9.96,2.71-2.21,5.86-3.31,9.43-3.31.47,0,.95.02,1.44.06Zm5.51,26.95c2.13-1.48,3.19-3.47,3.19-5.95,0-.29-.07-1.24-.21-2.84-.14-1.6-1.19-4.14-3.16-7.62-1.95-3.5-4.15-6.06-6.59-7.71-1.39-.94-2.74-1.41-4.07-1.41-1,0-1.96.26-2.9.79-2.21,1.46-3.31,3.67-3.31,6.62,0,.04,0,.81.03,2.31.02,1.5,1,4,2.93,7.5,1.99,3.5,4.3,6.06,6.91,7.71,1.5.92,2.92,1.38,4.25,1.38,1.04,0,2.01-.26,2.93-.79Z"/>
      <path class="cls-8" d="m79.14,166.43c.47-.61.7-1.27.7-1.99v-34.51c0-.61-.12-1.29-.35-2.05s-.52-1.41-.85-1.93l4.22.35c.82.08,1.5.41,2.04,1,.54.59.81,1.28.81,2.08v35.3c0,.25.06.52.18.81s.25.54.41.78c.16.23.29.43.41.59l.18.21h-8.23l.5-.62Z"/>
      <path class="cls-8" d="m90.34,166.43c.47-.61.7-1.27.7-1.99v-34.51c0-.61-.12-1.29-.35-2.05s-.52-1.41-.85-1.93l4.22.35c.82.08,1.5.41,2.04,1,.54.59.81,1.28.81,2.08v35.3c0,.25.06.52.18.81s.25.54.41.78c.16.23.29.43.41.59l.18.21h-8.23l.5-.62Z"/>
      <path class="cls-8" d="m125.71,139.86v24.64c0,.43.11.92.34,1.46s.5,1.02.83,1.41l-4.22-.26c-.82-.06-1.5-.3-2.04-.72s-.81-.91-.81-1.48v-1.82c-.61,1.07-1.49,2.02-2.67,2.83s-2.71,1.23-4.63,1.25h-.64c-.74,0-1.76-.09-3.05-.28s-2.5-.74-3.63-1.66l-.06-.06c-.35-.25-.83-.8-1.45-1.63s-1.02-1.96-1.22-3.38c-.06-.39-.11-.78-.15-1.17-.06-.61-.1-1.04-.12-1.32-.1-2.17-.14-5.03-.13-8.6s.04-6.52.1-8.86c-.02-.33-.08-.63-.19-.89s-.23-.49-.38-.67-.28-.33-.4-.42l-.18-.15,8.23-.09s-.15.11-.34.34-.38.53-.57.92-.29.79-.29,1.2v16.55c0,.37.05,1.06.15,2.07s.4,2.13.89,3.38,1.31,2.27,2.45,3.05c1.11.64,2.14.97,3.08.97.7,0,1.55-.3,2.53-.89s1.87-1.62,2.65-3.06v-22.82c0-.18-.06-.37-.18-.57s-.25-.39-.41-.56-.29-.31-.41-.42l-.18-.15h8.23l-.5.47c-.45.41-.67.88-.67,1.41Z"/>
      <path class="cls-8" d="m148.18,155.56c.23.9.35,1.77.35,2.61v.18c0,.88-.14,1.75-.41,2.61-.62,1.78-1.65,3.12-3.08,4.04-1.8,1-3.37,1.59-4.72,1.77s-2.75.28-4.22.28c-.88,0-1.88-.23-3.02-.7s-1.88-1.01-2.23-1.61c-.47-.62-.7-1.29-.7-1.99,0-.14,0-.28.03-.44.1-.41.32-.71.67-.91.23-.16.5-.23.79-.23.1,0,.21,0,.32.03.55.16.91.49,1.08,1l.06.23c.06.18.09.35.09.53,0,.08,0,.16-.03.23-.02.16-.03.31-.03.47,0,.23.03.56.1.97s.18.75.34,1.03c.27.47.67.79,1.19.97s1.03.27,1.54.29h.44c.27,0,.49,0,.64-.03,1.74-.21,2.9-.66,3.49-1.33s.95-1.29,1.08-1.86c.04-.12.08-.22.12-.32.18-.51.3-1.14.37-1.9s.1-1.35.1-1.76v-.29c0-.27-.02-.55-.06-.82-.06-.39-.16-.69-.29-.91-.12-.2-.27-.37-.47-.53-.18-.16-.43-.33-.76-.53-.61-.31-1.38-.66-2.31-1.05l-.59-.23c-1.19-.49-2.47-1.2-3.84-2.14-.68-.51-1.33-1.11-1.93-1.82-.59-.72-1.06-1.51-1.44-2.37-.47-1.19-.7-2.32-.7-3.4,0-.53.06-1.04.18-1.55l.12-.56s.03-.05.03-.09l.12-.53c.12-.43.26-.84.44-1.23.39-.8.9-1.48,1.52-2.05,1.29-1.09,2.64-1.71,4.04-1.85.64-.1,1.37-.15,2.17-.15.14,0,.49,0,1.05.01s1.19.05,1.88.13c.37.04,1.04.2,2.02.47s1.87.75,2.67,1.44c.31.29.57.63.76,1.03.23.39.35.81.35,1.26-.04.43-.21.77-.5,1.03-.27.23-.6.35-.97.35h-.09c-.55-.06-.95-.32-1.2-.79l-.03-.21c-.04-.12-.08-.27-.12-.45s-.08-.36-.12-.51-.06-.26-.06-.32c-.02-.04-.04-.1-.06-.18-.02-.25-.11-.59-.28-1s-.52-.8-1.07-1.16-1.39-.58-2.52-.66c-.23-.02-.47-.03-.7-.03-.78,0-1.48.12-2.11.37s-1.13.58-1.52,1-.67.82-.83,1.2-.26.63-.28.75c-.06.29-.09.58-.09.85,0,.18,0,.34.03.5.04.21.09.42.15.62,0,.06,0,.12.03.18s.03.11.03.15l.12.38c.31,1.02.65,1.81,1.03,2.37.35.51.89.96,1.61,1.35.61.33,1.38.68,2.31,1.05.16.06.33.13.53.21.08.04.17.08.26.12,1.07.39,2.28,1.01,3.6,1.85.72.49,1.42,1.12,2.08,1.9.64.82,1.12,1.73,1.44,2.72Z"/>
      <path class="cls-8" d="m181.73,167.05h-10.58c.04-.16.06-.31.06-.47,0-.39-.15-.75-.44-1.08l-12.22-11.72v10.9c0,.25.06.52.18.81s.25.54.41.78.29.42.41.56l.18.23h-8.2l.5-.62c.45-.61.67-1.27.67-1.99v-34.51c0-.61-.11-1.29-.34-2.05s-.5-1.41-.83-1.93l4.19.35c.82.08,1.5.41,2.04,1s.81,1.28.81,2.08v21.53l10.58-7.94c.16-.16.23-.34.23-.56,0-.14-.05-.35-.15-.63s-.31-.66-.63-1.14-.67-.94-1.04-1.38-.69-.81-.97-1.1l-.44-.41c.12-.04.75-.06,1.89-.07s2.46-.01,3.94-.01h3.96l1.7.03-1.2.41c-.66.23-1.29.57-1.88,1-.8.61-1.9,1.43-3.3,2.48s-2.83,2.12-4.29,3.22-2.71,2.05-3.72,2.83l-1.55,1.17,17.14,16.61c.51.47,1.07.84,1.7,1.11l1.2.53Z"/>
      <path class="cls-8" d="m188.07,157.18c.94,0,1.73.33,2.39,1s.98,1.46.98,2.37-.33,1.73-.98,2.39-1.45.98-2.39.98-1.71-.33-2.37-.98-1-1.45-1-2.39.33-1.71,1-2.37,1.46-1,2.37-1Z"/>
    </g>
  </g>
</svg>